<?xml version="1.0" standalone="no"?><!DOCTYPE svg PUBLIC "-//W3C//DTD SVG 1.1//EN" "http://www.w3.org/Graphics/SVG/1.1/DTD/svg11.dtd"><svg t="1611305518632" class="icon" viewBox="0 0 1088 1024" version="1.1" xmlns="http://www.w3.org/2000/svg" p-id="3886" xmlns:xlink="http://www.w3.org/1999/xlink" width="212.5" height="200"><defs><style type="text/css"></style></defs><path d="M1054 956h-68V446c0-56.336-45.664-102-102-102H816V208a34 34 0 0 0-68 0v136H578V174a34 34 0 1 0-68 0V344H340V208a34 34 0 1 0-68 0v136h-68c-56.336 0-102 45.664-102 102v510h-68a34 34 0 0 0 0 68h1020a34 34 0 0 0 0-68zM170 660.536c1.872 2.56 3.744 5.28 5.608 8.336 18.704 27.88 44.2 66.128 96.392 66.128 52.192 0 77.688-38.248 96.224-66.128 18.528-27.88 25.328-35.872 39.776-35.872 14.448 0 22.776 10.368 39.776 35.872 17 25.496 43.864 66.128 96.224 66.128 52.36 0 77.688-38.248 96.392-66.128 18.696-27.88 25.16-35.872 39.608-35.872 14.448 0 22.776 10.368 39.776 35.872 17.008 25.496 43.864 66.128 96.224 66.128 52.36 0 77.688-38.248 96.224-66.128 2.032-3.064 3.904-5.952 5.776-8.504V956h-748V660.536z" fill="#926140" p-id="3887"></path><path d="M204 412h680a34 34 0 0 1 34 34v125.288a142.968 142.968 0 0 0-62.392 59.84c-17 25.504-25.328 35.872-39.608 35.872-14.28 0-22.776-10.368-39.776-35.872-17.008-25.496-44.208-66.128-96.224-66.128-52.016 0-77.688 38.248-96.224 66.128-18.528 27.88-25.496 35.872-39.776 35.872-14.28 0-22.608-10.368-39.608-35.872-17-25.496-44.376-66.128-96.392-66.128s-77.688 38.248-96.224 66.128c-18.528 27.88-25.496 35.872-39.776 35.872-14.28 0-22.784-10.368-39.784-35.872a141.608 141.608 0 0 0-62.216-59.84V446a34 34 0 0 1 34-34zM272 72a34 34 0 1 0 68 0A34 34 0 0 0 272 72zM510 38a34 34 0 1 0 68 0 34 34 0 0 0-68 0zM748 72a34 34 0 1 0 68 0 34 34 0 0 0-68 0z" fill="#BD985F" p-id="3888"></path></svg>